<?xml version="1.0" standalone="no"?>
<!DOCTYPE svg PUBLIC "-//W3C//DTD SVG 20010904//EN"
 "http://www.w3.org/TR/2001/REC-SVG-20010904/DTD/svg10.dtd">
<svg version="1.0" xmlns="http://www.w3.org/2000/svg"
 width="310.000000pt" height="310.000000pt" viewBox="0 0 310.000000 310.000000"
 preserveAspectRatio="xMidYMid meet">
<metadata>
Created by potrace 1.11, written by Peter Selinger 2001-2013
</metadata>
<g transform="translate(0.000000,310.000000) scale(0.100000,-0.100000)"
fill="#000000" stroke="none">
<path d="M580 1645 l0 -675 95 0 95 0 2 288 3 287 193 3 192 2 0 95 0 95 -192
2 -193 3 -3 192 -2 193 292 2 293 3 3 93 3 92 -391 0 -390 0 0 -675z"/>
<path d="M1740 1645 l0 -675 100 0 100 0 0 290 0 290 190 0 190 0 0 95 0 95
-190 0 -190 0 0 195 0 195 290 0 290 0 0 95 0 95 -390 0 -390 0 0 -675z"/>
</g>
</svg>
